<?xml version="1.0" encoding="utf-8"?>
<!-- Generator: Adobe Illustrator 16.0.0, SVG Export Plug-In . SVG Version: 6.00 Build 0)  -->
<!DOCTYPE svg PUBLIC "-//W3C//DTD SVG 1.1//EN" "http://www.w3.org/Graphics/SVG/1.1/DTD/svg11.dtd">
<svg version="1.1" id="Calque_1" xmlns="http://www.w3.org/2000/svg" xmlns:xlink="http://www.w3.org/1999/xlink" x="0px" y="0px"
	 width="30px" height="30px" viewBox="585 585 30 30" style="enable-background:new 585 585 30 30;" xml:space="preserve">
<path style="fill:#512659;" d="M615,599.7c-0.1-3-1-6-2.8-8.4c-0.5-0.7-1-1.3-1.6-1.9c-2.2-2.1-5-3.7-8-4.2
	c-1.5-0.2-2.9-0.3-4.4-0.1c-0.8,0.1-1.6,0.2-2.4,0.5c-0.8,0.2-1.5,0.5-2.2,0.9c-2.8,1.3-5.2,3.5-6.7,6.2c-1.5,2.6-2.1,5.7-1.8,8.7
	c0.2,1.6,0.5,3,1.1,4.5c0.6,1.5,1.4,2.8,2.5,4c2,2.3,4.8,4,7.7,4.7c2.9,0.7,6,0.6,8.8-0.5c0.8-0.3,1.5-0.6,2.2-1
	c0.7-0.4,1.4-0.9,2-1.4c1.2-1,2.3-2.2,3.1-3.4C614.2,605.7,615.1,602.7,615,599.7z M612.1,601.6c-0.2,1-0.4,2.1-0.8,3.1
	c-0.4,1-1,1.9-1.6,2.8c-0.6,0.8-1.4,1.5-2.2,2.2c-0.9,0.7-1.8,1.2-2.8,1.6c-1,0.4-2,0.7-3.1,0.8c-1.1,0.1-2.2,0.1-3.2,0
	c-1-0.2-2.1-0.4-3.1-0.8c-1-0.4-1.9-1-2.8-1.6c-0.8-0.6-1.5-1.4-2.2-2.2c-0.7-0.9-1.2-1.8-1.6-2.8c-0.4-1-0.7-2-0.8-3.1
	c-0.1-1.1-0.1-2.2,0-3.2c0.2-1.1,0.4-2.1,0.8-3.1c0.4-1,1-1.9,1.6-2.8c0.6-0.8,1.4-1.5,2.2-2.2c0.9-0.7,1.8-1.2,2.8-1.6
	c1-0.4,2-0.7,3.1-0.8c1.1-0.1,2.2-0.1,3.2,0c1,0.2,2.1,0.4,3.1,0.8c1,0.4,1.9,1,2.8,1.6c0.4,0.3,0.8,0.7,1.2,1
	c0.4,0.4,0.7,0.7,1,1.1c0.7,0.9,1.2,1.8,1.6,2.8c0.4,1,0.7,2,0.8,3.1C612.3,599.5,612.3,600.5,612.1,601.6z M595.8,598.4
	c1-0.2,1.7-1.1,1.9-2.1c0-0.1,0-0.2,0-0.3c0-1.1-0.7-2-1.7-2.3c-0.9-0.3-2,0-2.5,0.7c-0.7,0.8-0.9,2-0.3,2.9
	C593.6,598.2,594.7,598.6,595.8,598.4z M605.5,593.7c-0.9-0.3-2,0-2.5,0.7c-0.7,0.8-0.9,2-0.3,2.9c0.5,0.9,1.6,1.4,2.7,1.1
	c1-0.2,1.7-1.1,1.9-2.1c0-0.1,0-0.2,0-0.3C607.2,595,606.6,594.1,605.5,593.7z M604.6,603.4h-9.3c-0.7,0-1.4,0.6-1.4,1.4
	c0,0.8,0.6,1.4,1.4,1.4h9.3c0.7,0,1.4-0.6,1.4-1.4C606,604.1,605.4,603.4,604.6,603.4z"/>
</svg>
