<?xml version="1.0" encoding="utf-8"?>
<!-- Generator: Adobe Illustrator 16.0.0, SVG Export Plug-In . SVG Version: 6.00 Build 0)  -->
<!DOCTYPE svg PUBLIC "-//W3C//DTD SVG 1.1//EN" "http://www.w3.org/Graphics/SVG/1.1/DTD/svg11.dtd">
<svg version="1.1" id="Calque_1" xmlns="http://www.w3.org/2000/svg" xmlns:xlink="http://www.w3.org/1999/xlink" x="0px" y="0px"
	 width="30px" height="30px" viewBox="0 0 30 30" enable-background="new 0 0 30 30" xml:space="preserve">
<circle fill="#FFB727" cx="15" cy="15" r="13.839"/>
<path id="neutral" fill="#512659" d="M29.983,14.709c-0.1-3-1-6-2.801-8.4c-0.5-0.7-1-1.3-1.6-1.899c-2.199-2.101-5-3.7-8-4.2
	c-1.5-0.2-2.899-0.3-4.399-0.101c-0.799,0.101-1.6,0.2-2.398,0.5c-0.801,0.2-1.5,0.5-2.201,0.9c-2.799,1.3-5.199,3.5-6.699,6.2
	c-1.5,2.6-2.1,5.7-1.801,8.7c0.201,1.6,0.5,3,1.1,4.5c0.602,1.5,1.4,2.8,2.5,4c2,2.3,4.801,4,7.701,4.699
	c2.9,0.7,5.999,0.601,8.798-0.5c0.801-0.3,1.5-0.6,2.201-1c0.699-0.399,1.4-0.899,2-1.399c1.199-1,2.299-2.2,3.1-3.4
	C29.183,20.709,30.083,17.709,29.983,14.709z M27.083,16.608c-0.199,1-0.4,2.101-0.799,3.101c-0.4,1-1,1.899-1.602,2.8
	c-0.6,0.8-1.398,1.5-2.199,2.2c-0.9,0.7-1.801,1.2-2.801,1.6c-1,0.4-2,0.7-3.1,0.8c-1.099,0.101-2.198,0.101-3.198,0
	c-1-0.199-2.1-0.399-3.1-0.8c-1-0.399-1.9-1-2.801-1.6c-0.801-0.601-1.5-1.4-2.199-2.2c-0.701-0.9-1.201-1.8-1.602-2.8
	c-0.398-1-0.699-2-0.799-3.101c-0.1-1.1-0.1-2.199,0-3.199c0.199-1.101,0.4-2.101,0.799-3.101c0.4-1,1-1.899,1.602-2.8
	c0.6-0.8,1.398-1.5,2.199-2.2c0.9-0.7,1.801-1.2,2.801-1.6c1-0.4,2-0.7,3.1-0.8c1.1-0.101,2.198-0.101,3.198,0
	c1,0.199,2.1,0.399,3.1,0.8c1,0.399,1.9,1,2.801,1.6c0.4,0.3,0.801,0.7,1.199,1c0.4,0.4,0.701,0.7,1,1.101
	c0.701,0.899,1.201,1.8,1.602,2.8c0.398,1,0.699,2,0.799,3.1C27.284,14.509,27.284,15.509,27.083,16.608z M10.785,13.409
	c1-0.2,1.699-1.101,1.898-2.101c0-0.1,0-0.2,0-0.3c0-1.1-0.699-2-1.699-2.3c-0.9-0.3-2,0-2.5,0.7c-0.699,0.8-0.9,2-0.301,2.899
	C8.584,13.209,9.684,13.608,10.785,13.409z M20.483,8.709c-0.9-0.3-2,0-2.5,0.7c-0.699,0.8-0.9,2-0.301,2.899
	c0.5,0.9,1.602,1.4,2.701,1.101c1-0.2,1.699-1.101,1.9-2.101c0-0.1,0-0.2,0-0.3C22.183,10.009,21.583,9.108,20.483,8.709z
	 M19.583,18.409h-9.298c-0.701,0-1.4,0.6-1.4,1.399s0.6,1.4,1.4,1.4h9.298c0.701,0,1.4-0.601,1.4-1.4
	C20.983,19.108,20.384,18.409,19.583,18.409z"/>
</svg>
