<?xml version="1.0" encoding="utf-8"?>
<!-- Generator: Adobe Illustrator 16.0.0, SVG Export Plug-In . SVG Version: 6.00 Build 0)  -->
<!DOCTYPE svg PUBLIC "-//W3C//DTD SVG 1.1//EN" "http://www.w3.org/Graphics/SVG/1.1/DTD/svg11.dtd">
<svg version="1.1" id="Calque_1" xmlns="http://www.w3.org/2000/svg" xmlns:xlink="http://www.w3.org/1999/xlink" x="0px" y="0px"
	 width="30px" height="30px" viewBox="0 0 30 30" enable-background="new 0 0 30 30" xml:space="preserve">
<circle fill="#1FBC2E" cx="15" cy="15" r="13.839"/>
<path id="vgood2" fill="#512659" d="M10.776,13.409c1-0.2,1.699-1.101,1.898-2.101v-0.3c0-1.1-0.699-2-1.699-2.3
	c-0.9-0.3-2,0-2.5,0.7c-0.699,0.8-0.9,2-0.301,2.899C8.575,13.209,9.674,13.608,10.776,13.409z M20.375,13.409
	c1-0.2,1.699-1.101,1.9-2.101v-0.3c0-1.1-0.701-2-1.701-2.3c-0.9-0.3-2,0-2.5,0.7c-0.699,0.8-0.9,2-0.299,2.899
	C18.174,13.209,19.275,13.608,20.375,13.409z M27.174,6.309c-0.5-0.7-1-1.3-1.6-1.899c-2.199-2.101-5-3.7-8-4.2
	c-1.5-0.2-2.9-0.3-4.4-0.101c-0.799,0.101-1.6,0.2-2.398,0.5c-0.801,0.2-1.5,0.5-2.201,0.9c-2.799,1.3-5.199,3.5-6.699,6.2
	c-1.5,2.6-2.1,5.7-1.801,8.7c0.201,1.6,0.5,3,1.1,4.5c0.602,1.5,1.4,2.8,2.5,4c2,2.3,4.701,4,7.701,4.699c2.9,0.7,6,0.601,8.798-0.5
	c0.801-0.3,1.5-0.6,2.201-1c0.699-0.399,1.4-0.899,2-1.399c1.199-1,2.299-2.2,3.1-3.4c1.699-2.6,2.6-5.6,2.5-8.6
	S28.975,8.709,27.174,6.309z M27.074,16.608c-0.199,1-0.4,2.101-0.799,3.101c-0.4,1-1,1.899-1.602,2.8c-0.6,0.8-1.398,1.5-2.199,2.2
	c-0.9,0.7-1.801,1.2-2.801,1.6c-1,0.4-2,0.7-3.1,0.8c-1.099,0.101-2.199,0.101-3.199,0c-1-0.199-2.1-0.399-3.1-0.8
	c-1-0.399-1.9-1-2.801-1.6c-0.801-0.601-1.5-1.4-2.199-2.2c-0.701-0.9-1.201-1.8-1.602-2.8c-0.398-1-0.699-2-0.799-3.101
	c-0.1-1.1-0.1-2.199,0-3.199c0.199-1,0.4-2.101,0.799-3.101c0.4-1,1-1.899,1.602-2.8c0.6-0.8,1.398-1.5,2.199-2.2
	c0.9-0.7,1.801-1.2,2.801-1.6c1-0.4,2-0.7,3.1-0.8c1.1-0.101,2.199-0.101,3.199,0c1,0.199,2.1,0.399,3.1,0.8
	c1,0.399,1.9,1,2.801,1.6c0.4,0.3,0.801,0.7,1.199,1c0.4,0.4,0.701,0.7,1,1.101c0.701,0.899,1.201,1.8,1.602,2.8
	c0.398,1,0.699,2,0.799,3.1C27.275,14.509,27.275,15.509,27.074,16.608z M22.259,15.278c-0.426-0.181-0.918-0.11-1.276,0.183
	c-1.521,1.241-3.705,1.953-5.991,1.953c-2.286,0-4.47-0.712-5.991-1.953c-0.357-0.293-0.85-0.364-1.276-0.183
	c-0.427,0.18-0.719,0.582-0.759,1.043c-0.02,0.227-0.034,0.455-0.034,0.687c0,4.444,3.616,8.061,8.061,8.061
	c4.444,0,8.06-3.616,8.06-8.061c0-0.231-0.015-0.46-0.034-0.687C22.978,15.86,22.686,15.458,22.259,15.278z M14.992,22.568
	c-2.431,0-4.503-1.567-5.257-3.745c3.148,1.424,7.365,1.424,10.513,0C19.494,21.001,17.422,22.568,14.992,22.568z"/>
</svg>
