<?xml version="1.0" encoding="utf-8"?>
<!-- Generator: Adobe Illustrator 16.0.0, SVG Export Plug-In . SVG Version: 6.00 Build 0)  -->
<!DOCTYPE svg PUBLIC "-//W3C//DTD SVG 1.1//EN" "http://www.w3.org/Graphics/SVG/1.1/DTD/svg11.dtd">
<svg version="1.1" id="Calque_1" xmlns="http://www.w3.org/2000/svg" xmlns:xlink="http://www.w3.org/1999/xlink" x="0px" y="0px"
	 width="30px" height="30px" viewBox="0 0 30 30" enable-background="new 0 0 30 30" xml:space="preserve">
<path id="vbad2" fill="#512659" d="M27.174,6.309c-0.5-0.7-1-1.3-1.6-1.899c-2.199-2.101-5-3.7-8-4.2c-1.5-0.2-2.9-0.3-4.4-0.101
	c-0.799,0.101-1.6,0.2-2.398,0.5c-0.801,0.2-1.5,0.5-2.201,0.9c-2.799,1.3-5.199,3.5-6.699,6.2c-1.5,2.6-2.1,5.7-1.801,8.7
	c0.201,1.6,0.5,3,1.1,4.5c0.602,1.5,1.4,2.8,2.5,4c2,2.3,4.701,4,7.701,4.699c2.9,0.7,6,0.601,8.798-0.5c0.801-0.3,1.5-0.6,2.201-1
	c0.699-0.399,1.4-0.899,2-1.399c1.199-1,2.299-2.2,3.1-3.4c1.699-2.6,2.6-5.6,2.5-8.6S28.975,8.709,27.174,6.309z M27.074,16.608
	c-0.199,1-0.4,2.101-0.799,3.101c-0.4,1-1,1.899-1.602,2.8c-0.6,0.8-1.398,1.5-2.199,2.2c-0.9,0.7-1.801,1.2-2.801,1.6
	c-1,0.4-2,0.7-3.1,0.8c-1.099,0.101-2.199,0.101-3.199,0c-1-0.199-2.1-0.399-3.1-0.8c-1-0.399-1.9-1-2.801-1.6
	c-0.801-0.601-1.5-1.4-2.199-2.2c-0.701-0.9-1.201-1.8-1.602-2.8c-0.398-1-0.699-2-0.799-3.101c-0.1-1.1-0.1-2.199,0-3.199
	c0.199-1,0.4-2.101,0.799-3.101c0.4-1,1-1.899,1.602-2.8c0.6-0.8,1.398-1.5,2.199-2.2c0.9-0.7,1.801-1.2,2.801-1.6
	c1-0.4,2-0.7,3.1-0.8c1.1-0.101,2.199-0.101,3.199,0c1,0.199,2.1,0.399,3.1,0.8c1,0.399,1.9,1,2.801,1.6c0.4,0.3,0.801,0.7,1.199,1
	c0.4,0.4,0.701,0.7,1,1.101c0.701,0.899,1.201,1.8,1.602,2.8c0.398,1,0.699,2,0.799,3.1C27.275,14.509,27.275,15.509,27.074,16.608z
	 M20.375,13.409c1-0.2,1.699-1.101,1.9-2.101v-0.3c0-1.1-0.701-2-1.701-2.3c-0.9-0.3-2,0-2.5,0.7c-0.699,0.8-0.9,2-0.299,2.899
	C18.174,13.209,19.275,13.608,20.375,13.409z M10.776,13.409c1-0.2,1.699-1.101,1.898-2.101v-0.3c0-1.1-0.699-2-1.699-2.3
	c-0.9-0.3-2,0-2.5,0.7c-0.699,0.8-0.9,2-0.301,2.899C8.575,13.209,9.674,13.608,10.776,13.409z M14.992,15.677
	c-4.214,0-7.643,2.903-7.643,6.472c0,0.191,0.014,0.38,0.032,0.567c0.044,0.438,0.313,0.818,0.71,1.006
	c0.17,0.08,0.353,0.12,0.534,0.12c0.243,0,0.484-0.071,0.693-0.21c1.434-0.955,3.501-1.503,5.673-1.503
	c2.171,0,4.239,0.548,5.671,1.503c0.364,0.243,0.828,0.277,1.224,0.092c0.396-0.186,0.666-0.564,0.713-0.999
	c0.021-0.19,0.034-0.382,0.034-0.576C22.634,18.58,19.205,15.677,14.992,15.677z M14.992,19.629c-1.631,0-3.194,0.251-4.586,0.724
	c0.85-1.29,2.586-2.176,4.586-2.176c2,0,3.736,0.886,4.585,2.176C18.186,19.88,16.622,19.629,14.992,19.629z"/>
</svg>
