<?xml version="1.0" encoding="utf-8"?>
<!-- Generator: Adobe Illustrator 16.0.0, SVG Export Plug-In . SVG Version: 6.00 Build 0)  -->
<!DOCTYPE svg PUBLIC "-//W3C//DTD SVG 1.1//EN" "http://www.w3.org/Graphics/SVG/1.1/DTD/svg11.dtd">
<svg version="1.1" id="Calque_1" xmlns="http://www.w3.org/2000/svg" xmlns:xlink="http://www.w3.org/1999/xlink" x="0px" y="0px"
	 width="30px" height="30px" viewBox="0 0 30 30" enable-background="new 0 0 30 30" xml:space="preserve">
<path id="good" fill="#512659" d="M20.583,8.682c-0.9-0.299-2,0-2.5,0.701c-0.699,0.799-0.9,2-0.299,2.898
	c0.398,0.9,1.5,1.301,2.6,1.102c1-0.201,1.699-1.102,1.9-2.102v-0.299C22.284,9.883,21.583,8.983,20.583,8.682z M10.785,13.383
	c1-0.201,1.699-1.102,1.898-2.102v-0.299c0-1.1-0.699-2-1.699-2.301c-0.9-0.299-2,0-2.5,0.701c-0.699,0.799-0.9,2-0.301,2.898
	C8.583,13.182,9.683,13.583,10.785,13.383z M27.183,6.282c-0.5-0.699-1-1.299-1.6-1.898c-2.199-2.102-5-3.701-8-4.201
	c-1.5-0.199-2.9-0.299-4.4-0.1c-0.799,0.1-1.6,0.199-2.398,0.5c-0.801,0.199-1.5,0.5-2.201,0.9c-2.799,1.299-5.199,3.5-6.699,6.199
	c-1.5,2.6-2.1,5.701-1.801,8.701c0.201,1.6,0.5,3,1.1,4.5c0.602,1.5,1.4,2.799,2.5,4c2,2.299,4.701,4,7.701,4.699
	c2.9,0.699,6,0.6,8.798-0.5c0.801-0.301,1.5-0.6,2.201-1c0.699-0.4,1.4-0.9,2-1.4c1.199-1,2.299-2.199,3.1-3.4
	c1.699-2.6,2.6-5.6,2.5-8.599C29.884,11.682,28.983,8.682,27.183,6.282z M27.083,16.582c-0.199,1-0.4,2.1-0.799,3.1
	c-0.4,1-1,1.9-1.602,2.801c-0.6,0.799-1.398,1.5-2.199,2.199c-0.9,0.701-1.801,1.201-2.801,1.6c-1,0.4-2,0.701-3.1,0.801
	c-1.099,0.1-2.199,0.1-3.199,0c-1-0.199-2.1-0.4-3.1-0.801c-1-0.398-1.9-1-2.801-1.6c-0.801-0.6-1.5-1.4-2.199-2.199
	c-0.701-0.9-1.201-1.801-1.602-2.801c-0.398-1-0.699-2-0.799-3.1c-0.1-1.099-0.1-2.199,0-3.199c0.199-1,0.4-2.102,0.799-3.102
	c0.4-1,1-1.898,1.602-2.799c0.6-0.801,1.398-1.5,2.199-2.201c0.9-0.699,1.801-1.199,2.801-1.6s2-0.699,3.1-0.799
	c1.1-0.102,2.199-0.102,3.199,0c1,0.199,2.1,0.398,3.1,0.799s1.9,1,2.801,1.6c0.4,0.301,0.801,0.701,1.199,1
	c0.4,0.4,0.701,0.701,1,1.102c0.701,0.898,1.201,1.799,1.602,2.799c0.398,1,0.699,2,0.799,3.1
	C27.284,14.483,27.284,15.483,27.083,16.582z M19.501,19.33c-1.296,1.072-2.852,1.639-4.5,1.639c-1.649,0-3.205-0.566-4.501-1.639
	c-0.638-0.527-1.583-0.439-2.111,0.199s-0.439,1.584,0.199,2.111c1.813,1.502,4.091,2.328,6.413,2.328
	c2.322,0,4.599-0.826,6.413-2.328c0.639-0.527,0.728-1.473,0.199-2.111S20.139,18.803,19.501,19.33z"/>
</svg>
