<?xml version="1.0" encoding="utf-8"?>
<!-- Generator: Adobe Illustrator 16.0.0, SVG Export Plug-In . SVG Version: 6.00 Build 0)  -->
<!DOCTYPE svg PUBLIC "-//W3C//DTD SVG 1.1//EN" "http://www.w3.org/Graphics/SVG/1.1/DTD/svg11.dtd">
<svg version="1.1" id="Calque_1" xmlns="http://www.w3.org/2000/svg" xmlns:xlink="http://www.w3.org/1999/xlink" x="0px" y="0px"
	 width="30px" height="30px" viewBox="0 0 30 30" enable-background="new 0 0 30 30" xml:space="preserve">
<circle fill="#FF8040" cx="15" cy="15" r="13.839"/>
<path id="bad" fill="#512659" d="M27.184,6.256c-0.5-0.699-1-1.299-1.6-1.898c-2.199-2.102-5-3.701-8-4.201
	c-1.5-0.199-2.901-0.299-4.401-0.1c-0.799,0.1-1.6,0.199-2.398,0.5c-0.801,0.199-1.5,0.5-2.201,0.9
	c-2.799,1.299-5.199,3.5-6.699,6.199c-1.5,2.6-2.1,5.701-1.801,8.701c0.201,1.6,0.5,3,1.1,4.5c0.602,1.5,1.4,2.799,2.5,4
	c2,2.299,4.701,4,7.701,4.699c2.9,0.699,6,0.6,8.799-0.5c0.801-0.301,1.5-0.6,2.201-1c0.699-0.4,1.4-0.9,2-1.4
	c1.199-1,2.299-2.199,3.1-3.4c1.698-2.6,2.599-5.6,2.499-8.6S28.983,8.656,27.184,6.256z M27.084,16.557c-0.199,1-0.4,2.1-0.799,3.1
	c-0.4,1-1,1.9-1.602,2.801c-0.6,0.799-1.398,1.5-2.199,2.199c-0.9,0.701-1.801,1.201-2.801,1.6c-1,0.4-2,0.701-3.1,0.801
	c-1.1,0.1-2.2,0.1-3.2,0c-1-0.199-2.1-0.4-3.1-0.801c-1-0.398-1.9-1-2.801-1.6c-0.801-0.6-1.5-1.4-2.199-2.199
	c-0.701-0.9-1.201-1.801-1.602-2.801c-0.398-1-0.699-2-0.799-3.1s-0.1-2.199,0-3.199c0.199-1,0.4-2.102,0.799-3.102
	c0.4-1,1-1.898,1.602-2.799c0.6-0.801,1.398-1.5,2.199-2.201c0.9-0.699,1.801-1.199,2.801-1.6s2-0.699,3.1-0.799
	c1.1-0.102,2.2-0.102,3.2,0c1,0.199,2.1,0.398,3.1,0.799s1.9,1,2.801,1.6c0.4,0.301,0.801,0.701,1.199,1
	c0.4,0.4,0.701,0.701,1,1.102c0.701,0.898,1.201,1.799,1.602,2.799c0.398,1,0.699,2,0.799,3.1
	C27.285,14.457,27.285,15.457,27.084,16.557z M10.785,13.357c1-0.201,1.699-1.102,1.898-2.102v-0.299c0-1.1-0.699-2-1.699-2.301
	c-0.9-0.299-2,0-2.5,0.701c-0.699,0.799-0.9,2-0.301,2.898C8.583,13.156,9.683,13.557,10.785,13.357z M20.584,8.656
	c-0.9-0.299-2,0-2.5,0.701c-0.699,0.799-0.9,2-0.299,2.898c0.398,0.9,1.5,1.301,2.6,1.102c1-0.201,1.699-1.102,1.9-2.102v-0.299
	C22.285,9.857,21.584,8.957,20.584,8.656z M15,16.96c-2.322,0-4.6,0.827-6.414,2.328c-0.638,0.528-0.727,1.474-0.199,2.111
	c0.528,0.639,1.473,0.728,2.112,0.199c1.295-1.072,2.852-1.639,4.5-1.639s3.206,0.566,4.5,1.639c0.28,0.231,0.619,0.345,0.956,0.345
	c0.432,0,0.859-0.186,1.156-0.544c0.528-0.638,0.439-1.583-0.199-2.111C19.601,17.787,17.323,16.96,15,16.96z"/>
</svg>
