<?xml version="1.0" encoding="utf-8"?>
<!-- Generator: Adobe Illustrator 16.0.0, SVG Export Plug-In . SVG Version: 6.00 Build 0)  -->
<!DOCTYPE svg PUBLIC "-//W3C//DTD SVG 1.1//EN" "http://www.w3.org/Graphics/SVG/1.1/DTD/svg11.dtd">
<svg version="1.1" id="Calque_1" xmlns="http://www.w3.org/2000/svg" xmlns:xlink="http://www.w3.org/1999/xlink" x="0px" y="0px"
	 width="30px" height="30px" viewBox="0 0 30 30" enable-background="new 0 0 30 30" xml:space="preserve">
<path id="vgood" display="none" fill="#512659" d="M29.983,14.683c-0.1-3-1-6-2.801-8.4c-0.5-0.7-1-1.3-1.6-1.899
	c-2.199-2.101-5-3.7-8-4.2c-1.5-0.2-2.9-0.3-4.4-0.101c-0.799,0.101-1.6,0.2-2.398,0.5c-0.801,0.2-1.5,0.5-2.201,0.9
	c-2.799,1.3-5.199,3.5-6.699,6.2c-1.5,2.6-2.1,5.7-1.801,8.7c0.201,1.6,0.5,3,1.1,4.5c0.602,1.5,1.4,2.8,2.5,4
	c2,2.3,4.701,4,7.701,4.699c2.9,0.7,6,0.601,8.798-0.5c0.801-0.3,1.5-0.6,2.201-1c0.699-0.399,1.4-0.899,2-1.399
	c1.199-1,2.299-2.2,3.1-3.4C29.183,20.683,30.083,17.683,29.983,14.683z M27.083,16.582c-0.199,1-0.4,2.101-0.799,3.101
	c-0.4,1-1,1.899-1.602,2.8c-0.6,0.8-1.398,1.5-2.199,2.2c-0.9,0.7-1.801,1.2-2.801,1.6c-1,0.4-2,0.7-3.1,0.8
	c-1.099,0.101-2.199,0.101-3.199,0c-1-0.199-2.1-0.399-3.1-0.8c-1-0.399-1.9-1-2.801-1.6c-0.801-0.601-1.5-1.4-2.199-2.2
	c-0.701-0.9-1.201-1.8-1.602-2.8c-0.398-1-0.699-2-0.799-3.101c-0.1-1.1-0.1-2.199,0-3.199c0.199-1,0.4-2.101,0.799-3.101
	c0.4-1,1-1.899,1.602-2.8c0.6-0.8,1.398-1.5,2.199-2.2c0.9-0.7,1.801-1.2,2.801-1.6c1-0.4,2-0.7,3.1-0.8
	c1.1-0.101,2.199-0.101,3.199,0c1,0.199,2.1,0.399,3.1,0.8c1,0.399,1.9,1,2.801,1.6c0.4,0.3,0.801,0.7,1.199,1
	c0.4,0.4,0.701,0.7,1,1.101c0.701,0.899,1.201,1.8,1.602,2.8c0.398,1,0.699,2,0.799,3.1C27.284,14.482,27.284,15.482,27.083,16.582z
	 M10.785,13.383c1-0.2,1.699-1.101,1.898-2.101c0-0.1,0-0.2,0-0.3c0-1.1-0.699-2-1.699-2.3c-0.9-0.3-2,0-2.5,0.7
	c-0.699,0.8-0.9,2-0.301,2.899C8.583,13.183,9.683,13.582,10.785,13.383z M20.384,13.383c1-0.2,1.699-1.101,1.9-2.101
	c0-0.1,0-0.2,0-0.3c0-1.1-0.701-2-1.701-2.3c-0.9-0.3-2,0-2.5,0.7c-0.699,0.8-0.9,2-0.299,2.899
	C18.183,13.183,19.284,13.582,20.384,13.383z M22.384,17.282c-0.6-0.3-1.5-0.2-1.9,0.5c-0.199,0.4-0.4,0.7-0.6,1
	c-0.301,0.4-0.701,0.8-1.1,1.101c-0.4,0.3-0.9,0.6-1.4,0.8s-1,0.3-1.6,0.399c-0.5,0.101-1.101,0.101-1.601,0
	c-0.5-0.1-1.1-0.199-1.6-0.399s-1-0.5-1.4-0.8c-0.398-0.301-0.799-0.7-1.1-1.101c-0.199-0.3-0.4-0.7-0.6-1
	c-0.301-0.6-1.301-0.899-1.9-0.5c-0.699,0.4-0.9,1.2-0.5,1.9c1.201,2.3,3.4,4,5.9,4.5c2.301,0.5,4.8,0.1,6.8-1.2
	c1.299-0.8,2.398-2,3.1-3.4c0.199-0.3,0.199-0.699,0.1-1.1C22.884,17.782,22.683,17.482,22.384,17.282z"/>
<path id="vbad" display="none" fill="#512659" d="M29.983,14.683c-0.1-3-1-6-2.801-8.4c-0.5-0.7-1-1.3-1.6-1.899
	c-2.199-2.101-5-3.7-8-4.2c-1.5-0.2-2.899-0.3-4.399-0.101c-0.799,0.101-1.6,0.2-2.398,0.5c-0.801,0.2-1.5,0.5-2.201,0.9
	c-2.799,1.3-5.199,3.5-6.699,6.2c-1.5,2.6-2.1,5.7-1.801,8.7c0.201,1.6,0.5,3,1.1,4.5c0.602,1.5,1.4,2.8,2.5,4
	c2,2.3,4.701,4,7.701,4.699c2.9,0.7,5.999,0.601,8.798-0.5c0.801-0.3,1.5-0.6,2.201-1c0.699-0.399,1.4-0.899,2-1.399
	c1.199-1,2.299-2.2,3.1-3.4C29.183,20.683,30.083,17.683,29.983,14.683z M27.083,16.582c-0.199,1-0.4,2.101-0.799,3.101
	c-0.4,1-1,1.899-1.602,2.8c-0.6,0.8-1.398,1.5-2.199,2.2c-0.9,0.7-1.801,1.2-2.801,1.6c-1,0.4-2,0.7-3.1,0.8
	c-1.099,0.101-2.198,0.101-3.198,0c-1-0.199-2.1-0.399-3.1-0.8c-1-0.399-1.9-1-2.801-1.6c-0.801-0.601-1.5-1.4-2.199-2.2
	c-0.701-0.9-1.201-1.8-1.602-2.8c-0.398-1-0.699-2-0.799-3.101c-0.1-1.1-0.1-2.199,0-3.199c0.199-1,0.4-2.101,0.799-3.101
	c0.4-1,1-1.899,1.602-2.8c0.6-0.8,1.398-1.5,2.199-2.2c0.9-0.7,1.801-1.2,2.801-1.6c1-0.4,2-0.7,3.1-0.8
	c1.1-0.101,2.198-0.101,3.198,0c1,0.199,2.1,0.399,3.1,0.8c1,0.399,1.9,1,2.801,1.6c0.4,0.3,0.801,0.7,1.199,1
	c0.4,0.4,0.701,0.7,1,1.101c0.701,0.899,1.201,1.8,1.602,2.8c0.398,1,0.699,2,0.799,3.1C27.284,14.482,27.284,15.482,27.083,16.582z
	 M10.785,13.383c1-0.2,1.699-1.101,1.898-2.101c0-0.1,0-0.2,0-0.3c0-1.1-0.699-2-1.699-2.3c-0.9-0.3-2,0-2.5,0.7
	c-0.699,0.8-0.9,2-0.301,2.899C8.584,13.183,9.684,13.582,10.785,13.383z M20.384,13.383c1-0.2,1.699-1.101,1.9-2.101
	c0-0.1,0-0.2,0-0.3c0-1.1-0.701-2-1.701-2.3c-0.9-0.3-2,0-2.5,0.7c-0.699,0.8-0.9,2-0.299,2.899
	C18.183,13.183,19.284,13.582,20.384,13.383z M19.784,17.082c-2-1.3-4.499-1.699-6.8-1.199c-2.5,0.6-4.699,2.3-5.9,4.5
	c-0.4,0.699-0.199,1.5,0.5,1.899c0.6,0.4,1.6,0.101,1.9-0.5c0.199-0.399,0.4-0.7,0.6-1c0.301-0.399,0.701-0.8,1.1-1.1
	c0.4-0.3,0.9-0.601,1.4-0.8c0.5-0.2,1-0.301,1.6-0.4c0.5-0.1,1.102-0.1,1.601,0c0.5,0.1,1,0.2,1.5,0.4c0.5,0.199,1,0.5,1.398,0.8
	c0.4,0.3,0.801,0.7,1.102,1.1c0.199,0.3,0.398,0.7,0.6,1c0.4,0.7,1.299,0.8,1.9,0.5c0.299-0.2,0.5-0.5,0.6-0.8
	c0.1-0.4,0-0.7-0.1-1.1C22.183,19.082,21.083,17.883,19.784,17.082z"/>
<path id="neutral" display="none" fill="#512659" d="M29.983,14.709c-0.1-3-1-6-2.801-8.4c-0.5-0.7-1-1.3-1.6-1.899
	c-2.199-2.101-5-3.7-8-4.2c-1.5-0.2-2.899-0.3-4.399-0.101c-0.799,0.101-1.6,0.2-2.398,0.5c-0.801,0.2-1.5,0.5-2.201,0.9
	c-2.799,1.3-5.199,3.5-6.699,6.2c-1.5,2.6-2.1,5.7-1.801,8.7c0.201,1.6,0.5,3,1.1,4.5c0.602,1.5,1.4,2.8,2.5,4
	c2,2.3,4.801,4,7.701,4.699c2.9,0.7,5.999,0.601,8.798-0.5c0.801-0.3,1.5-0.6,2.201-1c0.699-0.399,1.4-0.899,2-1.399
	c1.199-1,2.299-2.2,3.1-3.4C29.183,20.709,30.083,17.709,29.983,14.709z M27.083,16.608c-0.199,1-0.4,2.101-0.799,3.101
	c-0.4,1-1,1.899-1.602,2.8c-0.6,0.8-1.398,1.5-2.199,2.2c-0.9,0.7-1.801,1.2-2.801,1.6c-1,0.4-2,0.7-3.1,0.8
	c-1.099,0.101-2.198,0.101-3.198,0c-1-0.199-2.1-0.399-3.1-0.8c-1-0.399-1.9-1-2.801-1.6c-0.801-0.601-1.5-1.4-2.199-2.2
	c-0.701-0.9-1.201-1.8-1.602-2.8c-0.398-1-0.699-2-0.799-3.101c-0.1-1.1-0.1-2.199,0-3.199c0.199-1.101,0.4-2.101,0.799-3.101
	c0.4-1,1-1.899,1.602-2.8c0.6-0.8,1.398-1.5,2.199-2.2c0.9-0.7,1.801-1.2,2.801-1.6c1-0.4,2-0.7,3.1-0.8
	c1.1-0.101,2.198-0.101,3.198,0c1,0.199,2.1,0.399,3.1,0.8c1,0.399,1.9,1,2.801,1.6c0.4,0.3,0.801,0.7,1.199,1
	c0.4,0.4,0.701,0.7,1,1.101c0.701,0.899,1.201,1.8,1.602,2.8c0.398,1,0.699,2,0.799,3.1C27.284,14.509,27.284,15.509,27.083,16.608z
	 M10.785,13.409c1-0.2,1.699-1.101,1.898-2.101c0-0.1,0-0.2,0-0.3c0-1.1-0.699-2-1.699-2.3c-0.9-0.3-2,0-2.5,0.7
	c-0.699,0.8-0.9,2-0.301,2.899C8.584,13.209,9.684,13.608,10.785,13.409z M20.483,8.709c-0.9-0.3-2,0-2.5,0.7
	c-0.699,0.8-0.9,2-0.301,2.899c0.5,0.9,1.602,1.4,2.701,1.101c1-0.2,1.699-1.101,1.9-2.101c0-0.1,0-0.2,0-0.3
	C22.183,10.009,21.583,9.108,20.483,8.709z M19.583,18.409h-9.298c-0.701,0-1.4,0.6-1.4,1.399s0.6,1.4,1.4,1.4h9.298
	c0.701,0,1.4-0.601,1.4-1.4C20.983,19.108,20.384,18.409,19.583,18.409z"/>
<path id="good" display="none" fill="#512659" d="M20.583,8.682c-0.9-0.299-2,0-2.5,0.701c-0.699,0.799-0.9,2-0.299,2.898
	c0.398,0.9,1.5,1.301,2.6,1.102c1-0.201,1.699-1.102,1.9-2.102v-0.299C22.284,9.883,21.583,8.983,20.583,8.682z M10.785,13.383
	c1-0.201,1.699-1.102,1.898-2.102v-0.299c0-1.1-0.699-2-1.699-2.301c-0.9-0.299-2,0-2.5,0.701c-0.699,0.799-0.9,2-0.301,2.898
	C8.583,13.182,9.683,13.583,10.785,13.383z M27.183,6.282c-0.5-0.699-1-1.299-1.6-1.898c-2.199-2.102-5-3.701-8-4.201
	c-1.5-0.199-2.9-0.299-4.4-0.1c-0.799,0.1-1.6,0.199-2.398,0.5c-0.801,0.199-1.5,0.5-2.201,0.9c-2.799,1.299-5.199,3.5-6.699,6.199
	c-1.5,2.6-2.1,5.701-1.801,8.701c0.201,1.6,0.5,3,1.1,4.5c0.602,1.5,1.4,2.799,2.5,4c2,2.299,4.701,4,7.701,4.699
	c2.9,0.699,6,0.6,8.798-0.5c0.801-0.301,1.5-0.6,2.201-1c0.699-0.4,1.4-0.9,2-1.4c1.199-1,2.299-2.199,3.1-3.4
	c1.699-2.6,2.6-5.6,2.5-8.599C29.884,11.682,28.983,8.682,27.183,6.282z M27.083,16.582c-0.199,1-0.4,2.1-0.799,3.1
	c-0.4,1-1,1.9-1.602,2.801c-0.6,0.799-1.398,1.5-2.199,2.199c-0.9,0.701-1.801,1.201-2.801,1.6c-1,0.4-2,0.701-3.1,0.801
	c-1.099,0.1-2.199,0.1-3.199,0c-1-0.199-2.1-0.4-3.1-0.801c-1-0.398-1.9-1-2.801-1.6c-0.801-0.6-1.5-1.4-2.199-2.199
	c-0.701-0.9-1.201-1.801-1.602-2.801c-0.398-1-0.699-2-0.799-3.1c-0.1-1.099-0.1-2.199,0-3.199c0.199-1,0.4-2.102,0.799-3.102
	c0.4-1,1-1.898,1.602-2.799c0.6-0.801,1.398-1.5,2.199-2.201c0.9-0.699,1.801-1.199,2.801-1.6s2-0.699,3.1-0.799
	c1.1-0.102,2.199-0.102,3.199,0c1,0.199,2.1,0.398,3.1,0.799s1.9,1,2.801,1.6c0.4,0.301,0.801,0.701,1.199,1
	c0.4,0.4,0.701,0.701,1,1.102c0.701,0.898,1.201,1.799,1.602,2.799c0.398,1,0.699,2,0.799,3.1
	C27.284,14.483,27.284,15.483,27.083,16.582z M19.501,19.33c-1.296,1.072-2.852,1.639-4.5,1.639c-1.649,0-3.205-0.566-4.501-1.639
	c-0.638-0.527-1.583-0.439-2.111,0.199s-0.439,1.584,0.199,2.111c1.813,1.502,4.091,2.328,6.413,2.328
	c2.322,0,4.599-0.826,6.413-2.328c0.639-0.527,0.728-1.473,0.199-2.111S20.139,18.803,19.501,19.33z"/>
<path id="bad" fill="#512659" d="M27.184,6.256c-0.5-0.699-1-1.299-1.6-1.898c-2.199-2.102-5-3.701-8-4.201
	c-1.5-0.199-2.901-0.299-4.401-0.1c-0.799,0.1-1.6,0.199-2.398,0.5c-0.801,0.199-1.5,0.5-2.201,0.9
	c-2.799,1.299-5.199,3.5-6.699,6.199c-1.5,2.6-2.1,5.701-1.801,8.701c0.201,1.6,0.5,3,1.1,4.5c0.602,1.5,1.4,2.799,2.5,4
	c2,2.299,4.701,4,7.701,4.699c2.9,0.699,6,0.6,8.799-0.5c0.801-0.301,1.5-0.6,2.201-1c0.699-0.4,1.4-0.9,2-1.4
	c1.199-1,2.299-2.199,3.1-3.4c1.698-2.6,2.599-5.6,2.499-8.6S28.983,8.656,27.184,6.256z M27.084,16.557c-0.199,1-0.4,2.1-0.799,3.1
	c-0.4,1-1,1.9-1.602,2.801c-0.6,0.799-1.398,1.5-2.199,2.199c-0.9,0.701-1.801,1.201-2.801,1.6c-1,0.4-2,0.701-3.1,0.801
	c-1.1,0.1-2.2,0.1-3.2,0c-1-0.199-2.1-0.4-3.1-0.801c-1-0.398-1.9-1-2.801-1.6c-0.801-0.6-1.5-1.4-2.199-2.199
	c-0.701-0.9-1.201-1.801-1.602-2.801c-0.398-1-0.699-2-0.799-3.1s-0.1-2.199,0-3.199c0.199-1,0.4-2.102,0.799-3.102
	c0.4-1,1-1.898,1.602-2.799c0.6-0.801,1.398-1.5,2.199-2.201c0.9-0.699,1.801-1.199,2.801-1.6s2-0.699,3.1-0.799
	c1.1-0.102,2.2-0.102,3.2,0c1,0.199,2.1,0.398,3.1,0.799s1.9,1,2.801,1.6c0.4,0.301,0.801,0.701,1.199,1
	c0.4,0.4,0.701,0.701,1,1.102c0.701,0.898,1.201,1.799,1.602,2.799c0.398,1,0.699,2,0.799,3.1
	C27.285,14.457,27.285,15.457,27.084,16.557z M10.785,13.357c1-0.201,1.699-1.102,1.898-2.102v-0.299c0-1.1-0.699-2-1.699-2.301
	c-0.9-0.299-2,0-2.5,0.701c-0.699,0.799-0.9,2-0.301,2.898C8.583,13.156,9.683,13.557,10.785,13.357z M20.584,8.656
	c-0.9-0.299-2,0-2.5,0.701c-0.699,0.799-0.9,2-0.299,2.898c0.398,0.9,1.5,1.301,2.6,1.102c1-0.201,1.699-1.102,1.9-2.102v-0.299
	C22.285,9.857,21.584,8.957,20.584,8.656z M15,16.96c-2.322,0-4.6,0.827-6.414,2.328c-0.638,0.528-0.727,1.474-0.199,2.111
	c0.528,0.639,1.473,0.728,2.112,0.199c1.295-1.072,2.852-1.639,4.5-1.639s3.206,0.566,4.5,1.639c0.28,0.231,0.619,0.345,0.956,0.345
	c0.432,0,0.859-0.186,1.156-0.544c0.528-0.638,0.439-1.583-0.199-2.111C19.601,17.787,17.323,16.96,15,16.96z"/>
</svg>
