<svg xmlns="http://www.w3.org/2000/svg" xmlns:xlink="http://www.w3.org/1999/xlink" width="30" height="300" viewBox="0 0 30 300"><svg width="30" height="30" viewBox="0 0 30 30" id="smiley-bad" y="0"><path fill="#512659" d="M27.184 6.256c-.5-.699-1-1.299-1.6-1.898-2.199-2.102-5-3.701-8-4.201-1.5-.199-2.901-.299-4.401-.1-.799.1-1.6.199-2.398.5-.801.199-1.5.5-2.201.9-2.799 1.299-5.199 3.5-6.699 6.199-1.5 2.6-2.1 5.701-1.801 8.701.201 1.6.5 3 1.1 4.5a12.88 12.88 0 0 0 2.5 4c2 2.299 4.701 4 7.701 4.699 2.9.699 6 .6 8.799-.5.801-.301 1.5-.6 2.201-1 .699-.4 1.4-.9 2-1.4 1.199-1 2.299-2.199 3.1-3.4 1.698-2.6 2.599-5.6 2.499-8.6s-1.001-6-2.8-8.4zm-.1 10.301c-.199 1-.4 2.1-.799 3.1-.4 1-1 1.9-1.602 2.801-.6.799-1.398 1.5-2.199 2.199a11.18 11.18 0 0 1-2.801 1.6c-1 .4-2 .701-3.1.801-1.1.1-2.2.1-3.2 0-1-.199-2.1-.4-3.1-.801-1-.398-1.9-1-2.801-1.6-.801-.6-1.5-1.4-2.199-2.199a11.25 11.25 0 0 1-1.602-2.801c-.398-1-.699-2-.799-3.1s-.1-2.199 0-3.199c.199-1 .4-2.102.799-3.102.4-1 1-1.898 1.602-2.799.6-.801 1.398-1.5 2.199-2.201.9-.699 1.801-1.199 2.801-1.6s2-.699 3.1-.799c1.1-.102 2.2-.102 3.2 0 1 .199 2.1.398 3.1.799s1.9 1 2.801 1.6c.4.301.801.701 1.199 1 .4.4.701.701 1 1.102a11.203 11.203 0 0 1 1.602 2.799c.398 1 .699 2 .799 3.1.201 1.2.201 2.2 0 3.3zm-16.299-3.2c1-.201 1.699-1.102 1.898-2.102v-.299c0-1.1-.699-2-1.699-2.301-.9-.299-2 0-2.5.701-.699.799-.9 2-.301 2.898.4.902 1.5 1.303 2.602 1.103zm9.799-4.701c-.9-.299-2 0-2.5.701-.699.799-.9 2-.299 2.898.398.9 1.5 1.301 2.6 1.102 1-.201 1.699-1.102 1.9-2.102v-.299a2.373 2.373 0 0 0-1.701-2.3zM15 16.96c-2.322 0-4.6.827-6.414 2.328a1.5 1.5 0 1 0 1.913 2.31c1.295-1.072 2.852-1.639 4.5-1.639s3.206.566 4.5 1.639a1.499 1.499 0 1 0 1.913-2.31A10.08 10.08 0 0 0 15 16.96z"></path></svg><svg width="30" height="30" viewBox="0 0 30 30" id="smiley-bad-color" y="30"><circle fill="#FF8040" cx="15" cy="15" r="13.839"></circle><path fill="#512659" d="M27.184 6.256c-.5-.699-1-1.299-1.6-1.898-2.199-2.102-5-3.701-8-4.201-1.5-.199-2.901-.299-4.401-.1-.799.1-1.6.199-2.398.5-.801.199-1.5.5-2.201.9-2.799 1.299-5.199 3.5-6.699 6.199-1.5 2.6-2.1 5.701-1.801 8.701.201 1.6.5 3 1.1 4.5a12.88 12.88 0 0 0 2.5 4c2 2.299 4.701 4 7.701 4.699 2.9.699 6 .6 8.799-.5.801-.301 1.5-.6 2.201-1 .699-.4 1.4-.9 2-1.4 1.199-1 2.299-2.199 3.1-3.4 1.698-2.6 2.599-5.6 2.499-8.6s-1.001-6-2.8-8.4zm-.1 10.301c-.199 1-.4 2.1-.799 3.1-.4 1-1 1.9-1.602 2.801-.6.799-1.398 1.5-2.199 2.199a11.18 11.18 0 0 1-2.801 1.6c-1 .4-2 .701-3.1.801-1.1.1-2.2.1-3.2 0-1-.199-2.1-.4-3.1-.801-1-.398-1.9-1-2.801-1.6-.801-.6-1.5-1.4-2.199-2.199a11.25 11.25 0 0 1-1.602-2.801c-.398-1-.699-2-.799-3.1s-.1-2.199 0-3.199c.199-1 .4-2.102.799-3.102.4-1 1-1.898 1.602-2.799.6-.801 1.398-1.5 2.199-2.201.9-.699 1.801-1.199 2.801-1.6s2-.699 3.1-.799c1.1-.102 2.2-.102 3.2 0 1 .199 2.1.398 3.1.799s1.9 1 2.801 1.6c.4.301.801.701 1.199 1 .4.4.701.701 1 1.102a11.203 11.203 0 0 1 1.602 2.799c.398 1 .699 2 .799 3.1.201 1.2.201 2.2 0 3.3zm-16.299-3.2c1-.201 1.699-1.102 1.898-2.102v-.299c0-1.1-.699-2-1.699-2.301-.9-.299-2 0-2.5.701-.699.799-.9 2-.301 2.898.4.902 1.5 1.303 2.602 1.103zm9.799-4.701c-.9-.299-2 0-2.5.701-.699.799-.9 2-.299 2.898.398.9 1.5 1.301 2.6 1.102 1-.201 1.699-1.102 1.9-2.102v-.299a2.373 2.373 0 0 0-1.701-2.3zM15 16.96c-2.322 0-4.6.827-6.414 2.328a1.5 1.5 0 1 0 1.913 2.31c1.295-1.072 2.852-1.639 4.5-1.639s3.206.566 4.5 1.639a1.499 1.499 0 1 0 1.913-2.31A10.08 10.08 0 0 0 15 16.96z"></path></svg><svg width="30" height="30" viewBox="0 0 30 30" id="smiley-good" y="60"><path fill="#512659" d="M20.583 8.682c-.9-.299-2 0-2.5.701-.699.799-.9 2-.299 2.898.398.9 1.5 1.301 2.6 1.102 1-.201 1.699-1.102 1.9-2.102v-.299a2.373 2.373 0 0 0-1.701-2.3zm-9.798 4.701c1-.201 1.699-1.102 1.898-2.102v-.299c0-1.1-.699-2-1.699-2.301-.9-.299-2 0-2.5.701-.699.799-.9 2-.301 2.898.4.902 1.5 1.303 2.602 1.103zm16.398-7.101c-.5-.699-1-1.299-1.6-1.898-2.199-2.102-5-3.701-8-4.201-1.5-.199-2.9-.299-4.4-.1-.799.1-1.6.199-2.398.5-.801.199-1.5.5-2.201.9-2.799 1.299-5.199 3.5-6.699 6.199-1.5 2.6-2.1 5.701-1.801 8.701.201 1.6.5 3 1.1 4.5a12.88 12.88 0 0 0 2.5 4c2 2.299 4.701 4 7.701 4.699 2.9.699 6 .6 8.798-.5.801-.301 1.5-.6 2.201-1 .699-.4 1.4-.9 2-1.4 1.199-1 2.299-2.199 3.1-3.4 1.699-2.6 2.6-5.6 2.5-8.599-.1-3.001-1.001-6.001-2.801-8.401zm-.1 10.3c-.199 1-.4 2.1-.799 3.1-.4 1-1 1.9-1.602 2.801-.6.799-1.398 1.5-2.199 2.199a11.18 11.18 0 0 1-2.801 1.6c-1 .4-2 .701-3.1.801-1.099.1-2.199.1-3.199 0-1-.199-2.1-.4-3.1-.801-1-.398-1.9-1-2.801-1.6-.801-.6-1.5-1.4-2.199-2.199a11.25 11.25 0 0 1-1.602-2.801c-.398-1-.699-2-.799-3.1-.1-1.099-.1-2.199 0-3.199.199-1 .4-2.102.799-3.102.4-1 1-1.898 1.602-2.799.6-.801 1.398-1.5 2.199-2.201.9-.699 1.801-1.199 2.801-1.6s2-.699 3.1-.799a16.75 16.75 0 0 1 3.199 0c1 .199 2.1.398 3.1.799s1.9 1 2.801 1.6c.4.301.801.701 1.199 1 .4.4.701.701 1 1.102a11.203 11.203 0 0 1 1.602 2.799c.398 1 .699 2 .799 3.1.201 1.201.201 2.201 0 3.3zm-7.582 2.748c-1.296 1.072-2.852 1.639-4.5 1.639-1.649 0-3.205-.566-4.501-1.639a1.5 1.5 0 0 0-1.912 2.31 10.083 10.083 0 0 0 6.413 2.328c2.322 0 4.599-.826 6.413-2.328.639-.527.728-1.473.199-2.111s-1.474-.726-2.112-.199z"></path></svg><svg width="30" height="30" viewBox="0 0 30 30" id="smiley-good-color" y="90"><circle fill="#96D19C" cx="15" cy="15" r="13.839"></circle><path fill="#512659" d="M20.583 8.682c-.9-.299-2 0-2.5.701-.699.799-.9 2-.299 2.898.398.9 1.5 1.301 2.6 1.102 1-.201 1.699-1.102 1.9-2.102v-.299a2.373 2.373 0 0 0-1.701-2.3zm-9.798 4.701c1-.201 1.699-1.102 1.898-2.102v-.299c0-1.1-.699-2-1.699-2.301-.9-.299-2 0-2.5.701-.699.799-.9 2-.301 2.898.4.902 1.5 1.303 2.602 1.103zm16.398-7.101c-.5-.699-1-1.299-1.6-1.898-2.199-2.102-5-3.701-8-4.201-1.5-.199-2.9-.299-4.4-.1-.799.1-1.6.199-2.398.5-.801.199-1.5.5-2.201.9-2.799 1.299-5.199 3.5-6.699 6.199-1.5 2.6-2.1 5.701-1.801 8.701.201 1.6.5 3 1.1 4.5a12.88 12.88 0 0 0 2.5 4c2 2.299 4.701 4 7.701 4.699 2.9.699 6 .6 8.798-.5.801-.301 1.5-.6 2.201-1 .699-.4 1.4-.9 2-1.4 1.199-1 2.299-2.199 3.1-3.4 1.699-2.6 2.6-5.6 2.5-8.599-.1-3.001-1.001-6.001-2.801-8.401zm-.1 10.3c-.199 1-.4 2.1-.799 3.1-.4 1-1 1.9-1.602 2.801-.6.799-1.398 1.5-2.199 2.199a11.18 11.18 0 0 1-2.801 1.6c-1 .4-2 .701-3.1.801-1.099.1-2.199.1-3.199 0-1-.199-2.1-.4-3.1-.801-1-.398-1.9-1-2.801-1.6-.801-.6-1.5-1.4-2.199-2.199a11.25 11.25 0 0 1-1.602-2.801c-.398-1-.699-2-.799-3.1-.1-1.099-.1-2.199 0-3.199.199-1 .4-2.102.799-3.102.4-1 1-1.898 1.602-2.799.6-.801 1.398-1.5 2.199-2.201.9-.699 1.801-1.199 2.801-1.6s2-.699 3.1-.799a16.75 16.75 0 0 1 3.199 0c1 .199 2.1.398 3.1.799s1.9 1 2.801 1.6c.4.301.801.701 1.199 1 .4.4.701.701 1 1.102a11.203 11.203 0 0 1 1.602 2.799c.398 1 .699 2 .799 3.1.201 1.201.201 2.201 0 3.3zm-7.582 2.748c-1.296 1.072-2.852 1.639-4.5 1.639-1.649 0-3.205-.566-4.501-1.639a1.5 1.5 0 0 0-1.912 2.31 10.083 10.083 0 0 0 6.413 2.328c2.322 0 4.599-.826 6.413-2.328.639-.527.728-1.473.199-2.111s-1.474-.726-2.112-.199z"></path></svg><svg width="30" height="30" viewBox="585 585 30 30" id="smiley-neutral" y="120"><path d="M615 599.7c-.1-3-1-6-2.8-8.4-.5-.7-1-1.3-1.6-1.9-2.2-2.1-5-3.7-8-4.2-1.5-.2-2.9-.3-4.4-.1-.8.1-1.6.2-2.4.5-.8.2-1.5.5-2.2.9-2.8 1.3-5.2 3.5-6.7 6.2-1.5 2.6-2.1 5.7-1.8 8.7.2 1.6.5 3 1.1 4.5.6 1.5 1.4 2.8 2.5 4 2 2.3 4.8 4 7.7 4.7 2.9.7 6 .6 8.8-.5.8-.3 1.5-.6 2.2-1 .7-.4 1.4-.9 2-1.4 1.2-1 2.3-2.2 3.1-3.4 1.7-2.6 2.6-5.6 2.5-8.6zm-2.9 1.9c-.2 1-.4 2.1-.8 3.1s-1 1.9-1.6 2.8c-.6.8-1.4 1.5-2.2 2.2-.9.7-1.8 1.2-2.8 1.6-1 .4-2 .7-3.1.8-1.1.1-2.2.1-3.2 0-1-.2-2.1-.4-3.1-.8s-1.9-1-2.8-1.6c-.8-.6-1.5-1.4-2.2-2.2-.7-.9-1.2-1.8-1.6-2.8-.4-1-.7-2-.8-3.1-.1-1.1-.1-2.2 0-3.2.2-1.1.4-2.1.8-3.1s1-1.9 1.6-2.8c.6-.8 1.4-1.5 2.2-2.2.9-.7 1.8-1.2 2.8-1.6 1-.4 2-.7 3.1-.8 1.1-.1 2.2-.1 3.2 0 1 .2 2.1.4 3.1.8s1.9 1 2.8 1.6c.4.3.8.7 1.2 1 .4.4.7.7 1 1.1.7.9 1.2 1.8 1.6 2.8.4 1 .7 2 .8 3.1.2 1.2.2 2.2 0 3.3zm-16.3-3.2c1-.2 1.7-1.1 1.9-2.1v-.3c0-1.1-.7-2-1.7-2.3-.9-.3-2 0-2.5.7-.7.8-.9 2-.3 2.9.4.9 1.5 1.3 2.6 1.1zm9.7-4.7c-.9-.3-2 0-2.5.7-.7.8-.9 2-.3 2.9.5.9 1.6 1.4 2.7 1.1 1-.2 1.7-1.1 1.9-2.1v-.3c-.1-1-.7-1.9-1.8-2.3zm-.9 9.7h-9.3c-.7 0-1.4.6-1.4 1.4 0 .8.6 1.4 1.4 1.4h9.3c.7 0 1.4-.6 1.4-1.4 0-.7-.6-1.4-1.4-1.4z" fill="#512659"></path></svg><svg width="30" height="30" viewBox="0 0 30 30" id="smiley-neutral-color" y="150"><circle fill="#FFB727" cx="15" cy="15" r="13.839"></circle><path fill="#512659" d="M29.983 14.709c-.1-3-1-6-2.801-8.4-.5-.7-1-1.3-1.6-1.899-2.199-2.101-5-3.7-8-4.2-1.5-.2-2.899-.3-4.399-.101-.799.101-1.6.2-2.398.5-.801.2-1.5.5-2.201.9-2.799 1.3-5.199 3.5-6.699 6.2-1.5 2.6-2.1 5.7-1.801 8.7.201 1.6.5 3 1.1 4.5.602 1.5 1.4 2.8 2.5 4 2 2.3 4.801 4 7.701 4.699 2.9.7 5.999.601 8.798-.5.801-.3 1.5-.6 2.201-1a14.26 14.26 0 0 0 2-1.399c1.199-1 2.299-2.2 3.1-3.4 1.699-2.6 2.599-5.6 2.499-8.6zm-2.9 1.899c-.199 1-.4 2.101-.799 3.101-.4 1-1 1.899-1.602 2.8-.6.8-1.398 1.5-2.199 2.2-.9.7-1.801 1.2-2.801 1.6-1 .4-2 .7-3.1.8a16.905 16.905 0 0 1-3.198 0c-1-.199-2.1-.399-3.1-.8-1-.399-1.9-1-2.801-1.6-.801-.601-1.5-1.4-2.199-2.2-.701-.9-1.201-1.8-1.602-2.8-.398-1-.699-2-.799-3.101-.1-1.1-.1-2.199 0-3.199.199-1.101.4-2.101.799-3.101.4-1 1-1.899 1.602-2.8.6-.8 1.398-1.5 2.199-2.2.9-.7 1.801-1.2 2.801-1.6 1-.4 2-.7 3.1-.8 1.1-.101 2.198-.101 3.198 0 1 .199 2.1.399 3.1.8 1 .399 1.9 1 2.801 1.6.4.3.801.7 1.199 1 .4.4.701.7 1 1.101.701.899 1.201 1.8 1.602 2.8.398 1 .699 2 .799 3.1.201 1.2.201 2.2 0 3.299zm-16.298-3.199c1-.2 1.699-1.101 1.898-2.101v-.3c0-1.1-.699-2-1.699-2.3-.9-.3-2 0-2.5.7-.699.8-.9 2-.301 2.899.401.902 1.501 1.301 2.602 1.102zm9.698-4.7c-.9-.3-2 0-2.5.7-.699.8-.9 2-.301 2.899.5.9 1.602 1.4 2.701 1.101 1-.2 1.699-1.101 1.9-2.101v-.3c-.1-.999-.7-1.9-1.8-2.299zm-.9 9.7h-9.298c-.701 0-1.4.6-1.4 1.399s.6 1.4 1.4 1.4h9.298c.701 0 1.4-.601 1.4-1.4 0-.7-.599-1.399-1.4-1.399z"></path></svg><svg width="30" height="30" viewBox="0 0 30 30" id="smiley-vbad" y="180"><path fill="#512659" d="M27.174 6.309c-.5-.7-1-1.3-1.6-1.899-2.199-2.101-5-3.7-8-4.2-1.5-.2-2.9-.3-4.4-.101-.799.101-1.6.2-2.398.5-.801.2-1.5.5-2.201.9-2.799 1.3-5.199 3.5-6.699 6.2-1.5 2.6-2.1 5.7-1.801 8.7.201 1.6.5 3 1.1 4.5.602 1.5 1.4 2.8 2.5 4 2 2.3 4.701 4 7.701 4.699 2.9.7 6 .601 8.798-.5.801-.3 1.5-.6 2.201-1a14.26 14.26 0 0 0 2-1.399c1.199-1 2.299-2.2 3.1-3.4 1.699-2.6 2.6-5.6 2.5-8.6s-1-6-2.801-8.4zm-.1 10.299c-.199 1-.4 2.101-.799 3.101-.4 1-1 1.899-1.602 2.8-.6.8-1.398 1.5-2.199 2.2-.9.7-1.801 1.2-2.801 1.6-1 .4-2 .7-3.1.8a16.916 16.916 0 0 1-3.199 0c-1-.199-2.1-.399-3.1-.8-1-.399-1.9-1-2.801-1.6-.801-.601-1.5-1.4-2.199-2.2-.701-.9-1.201-1.8-1.602-2.8-.398-1-.699-2-.799-3.101-.1-1.1-.1-2.199 0-3.199.199-1 .4-2.101.799-3.101.4-1 1-1.899 1.602-2.8.6-.8 1.398-1.5 2.199-2.2.9-.7 1.801-1.2 2.801-1.6 1-.4 2-.7 3.1-.8 1.1-.101 2.199-.101 3.199 0 1 .199 2.1.399 3.1.8 1 .399 1.9 1 2.801 1.6.4.3.801.7 1.199 1 .4.4.701.7 1 1.101.701.899 1.201 1.8 1.602 2.8.398 1 .699 2 .799 3.1.201 1.2.201 2.2 0 3.299zm-6.699-3.199c1-.2 1.699-1.101 1.9-2.101v-.3c0-1.1-.701-2-1.701-2.3-.9-.3-2 0-2.5.7-.699.8-.9 2-.299 2.899.399.902 1.5 1.301 2.6 1.102zm-9.599 0c1-.2 1.699-1.101 1.898-2.101v-.3c0-1.1-.699-2-1.699-2.3-.9-.3-2 0-2.5.7-.699.8-.9 2-.301 2.899.401.902 1.5 1.301 2.602 1.102zm4.216 2.268c-4.214 0-7.643 2.903-7.643 6.472 0 .191.014.38.032.567a1.25 1.25 0 0 0 1.937.916c1.434-.955 3.501-1.503 5.673-1.503 2.171 0 4.239.548 5.671 1.503a1.25 1.25 0 0 0 1.937-.907c.021-.19.034-.382.034-.576.001-3.569-3.428-6.472-7.641-6.472zm0 3.952c-1.631 0-3.194.251-4.586.724.85-1.29 2.586-2.176 4.586-2.176 2 0 3.736.886 4.585 2.176-1.391-.473-2.955-.724-4.585-.724z"></path></svg><svg width="30" height="30" viewBox="0 0 30 30" id="smiley-vbad-color" y="210"><circle fill="#E22B35" cx="15" cy="15" r="13.839"></circle><path fill="#512659" d="M27.174 6.309c-.5-.7-1-1.3-1.6-1.899-2.199-2.101-5-3.7-8-4.2-1.5-.2-2.9-.3-4.4-.101-.799.101-1.6.2-2.398.5-.801.2-1.5.5-2.201.9-2.799 1.3-5.199 3.5-6.699 6.2-1.5 2.6-2.1 5.7-1.801 8.7.201 1.6.5 3 1.1 4.5.602 1.5 1.4 2.8 2.5 4 2 2.3 4.701 4 7.701 4.699 2.9.7 6 .601 8.798-.5.801-.3 1.5-.6 2.201-1a14.26 14.26 0 0 0 2-1.399c1.199-1 2.299-2.2 3.1-3.4 1.699-2.6 2.6-5.6 2.5-8.6s-1-6-2.801-8.4zm-.1 10.299c-.199 1-.4 2.101-.799 3.101-.4 1-1 1.899-1.602 2.8-.6.8-1.398 1.5-2.199 2.2-.9.7-1.801 1.2-2.801 1.6-1 .4-2 .7-3.1.8a16.916 16.916 0 0 1-3.199 0c-1-.199-2.1-.399-3.1-.8-1-.399-1.9-1-2.801-1.6-.801-.601-1.5-1.4-2.199-2.2-.701-.9-1.201-1.8-1.602-2.8-.398-1-.699-2-.799-3.101-.1-1.1-.1-2.199 0-3.199.199-1 .4-2.101.799-3.101.4-1 1-1.899 1.602-2.8.6-.8 1.398-1.5 2.199-2.2.9-.7 1.801-1.2 2.801-1.6 1-.4 2-.7 3.1-.8 1.1-.101 2.199-.101 3.199 0 1 .199 2.1.399 3.1.8 1 .399 1.9 1 2.801 1.6.4.3.801.7 1.199 1 .4.4.701.7 1 1.101.701.899 1.201 1.8 1.602 2.8.398 1 .699 2 .799 3.1.201 1.2.201 2.2 0 3.299zm-6.699-3.199c1-.2 1.699-1.101 1.9-2.101v-.3c0-1.1-.701-2-1.701-2.3-.9-.3-2 0-2.5.7-.699.8-.9 2-.299 2.899.399.902 1.5 1.301 2.6 1.102zm-9.599 0c1-.2 1.699-1.101 1.898-2.101v-.3c0-1.1-.699-2-1.699-2.3-.9-.3-2 0-2.5.7-.699.8-.9 2-.301 2.899.401.902 1.5 1.301 2.602 1.102zm4.216 2.268c-4.214 0-7.643 2.903-7.643 6.472 0 .191.014.38.032.567a1.25 1.25 0 0 0 1.937.916c1.434-.955 3.501-1.503 5.673-1.503 2.171 0 4.239.548 5.671 1.503a1.25 1.25 0 0 0 1.937-.907c.021-.19.034-.382.034-.576.001-3.569-3.428-6.472-7.641-6.472zm0 3.952c-1.631 0-3.194.251-4.586.724.85-1.29 2.586-2.176 4.586-2.176 2 0 3.736.886 4.585 2.176-1.391-.473-2.955-.724-4.585-.724z"></path></svg><svg width="30" height="30" viewBox="0 0 30 30" id="smiley-vgood" y="240"><path fill="#512659" d="M10.776 13.409c1-.2 1.699-1.101 1.898-2.101v-.3c0-1.1-.699-2-1.699-2.3-.9-.3-2 0-2.5.7-.699.8-.9 2-.301 2.899.401.902 1.5 1.301 2.602 1.102zm9.599 0c1-.2 1.699-1.101 1.9-2.101v-.3c0-1.1-.701-2-1.701-2.3-.9-.3-2 0-2.5.7-.699.8-.9 2-.299 2.899.399.902 1.5 1.301 2.6 1.102zm6.799-7.1c-.5-.7-1-1.3-1.6-1.899-2.199-2.101-5-3.7-8-4.2-1.5-.2-2.9-.3-4.4-.101-.799.101-1.6.2-2.398.5-.801.2-1.5.5-2.201.9-2.799 1.3-5.199 3.5-6.699 6.2-1.5 2.6-2.1 5.7-1.801 8.7.201 1.6.5 3 1.1 4.5.602 1.5 1.4 2.8 2.5 4 2 2.3 4.701 4 7.701 4.699 2.9.7 6 .601 8.798-.5.801-.3 1.5-.6 2.201-1a14.26 14.26 0 0 0 2-1.399c1.199-1 2.299-2.2 3.1-3.4 1.699-2.6 2.6-5.6 2.5-8.6s-1-6-2.801-8.4zm-.1 10.299c-.199 1-.4 2.101-.799 3.101-.4 1-1 1.899-1.602 2.8-.6.8-1.398 1.5-2.199 2.2-.9.7-1.801 1.2-2.801 1.6-1 .4-2 .7-3.1.8a16.916 16.916 0 0 1-3.199 0c-1-.199-2.1-.399-3.1-.8-1-.399-1.9-1-2.801-1.6-.801-.601-1.5-1.4-2.199-2.2-.701-.9-1.201-1.8-1.602-2.8-.398-1-.699-2-.799-3.101-.1-1.1-.1-2.199 0-3.199.199-1 .4-2.101.799-3.101.4-1 1-1.899 1.602-2.8.6-.8 1.398-1.5 2.199-2.2.9-.7 1.801-1.2 2.801-1.6 1-.4 2-.7 3.1-.8 1.1-.101 2.199-.101 3.199 0 1 .199 2.1.399 3.1.8 1 .399 1.9 1 2.801 1.6.4.3.801.7 1.199 1 .4.4.701.7 1 1.101.701.899 1.201 1.8 1.602 2.8.398 1 .699 2 .799 3.1.201 1.2.201 2.2 0 3.299zm-4.815-1.33a1.246 1.246 0 0 0-1.276.183c-1.521 1.241-3.705 1.953-5.991 1.953-2.286 0-4.47-.712-5.991-1.953a1.25 1.25 0 0 0-2.035.86c-.02.227-.034.455-.034.687 0 4.444 3.616 8.061 8.061 8.061 4.444 0 8.06-3.616 8.06-8.061 0-.231-.015-.46-.034-.687a1.252 1.252 0 0 0-.76-1.043zm-7.267 7.29a5.57 5.57 0 0 1-5.257-3.745c3.148 1.424 7.365 1.424 10.513 0a5.57 5.57 0 0 1-5.256 3.745z"></path></svg><svg width="30" height="30" viewBox="0 0 30 30" id="smiley-vgood-color" y="270"><circle fill="#1FBC2E" cx="15" cy="15" r="13.839"></circle><path fill="#512659" d="M10.776 13.409c1-.2 1.699-1.101 1.898-2.101v-.3c0-1.1-.699-2-1.699-2.3-.9-.3-2 0-2.5.7-.699.8-.9 2-.301 2.899.401.902 1.5 1.301 2.602 1.102zm9.599 0c1-.2 1.699-1.101 1.9-2.101v-.3c0-1.1-.701-2-1.701-2.3-.9-.3-2 0-2.5.7-.699.8-.9 2-.299 2.899.399.902 1.5 1.301 2.6 1.102zm6.799-7.1c-.5-.7-1-1.3-1.6-1.899-2.199-2.101-5-3.7-8-4.2-1.5-.2-2.9-.3-4.4-.101-.799.101-1.6.2-2.398.5-.801.2-1.5.5-2.201.9-2.799 1.3-5.199 3.5-6.699 6.2-1.5 2.6-2.1 5.7-1.801 8.7.201 1.6.5 3 1.1 4.5.602 1.5 1.4 2.8 2.5 4 2 2.3 4.701 4 7.701 4.699 2.9.7 6 .601 8.798-.5.801-.3 1.5-.6 2.201-1a14.26 14.26 0 0 0 2-1.399c1.199-1 2.299-2.2 3.1-3.4 1.699-2.6 2.6-5.6 2.5-8.6s-1-6-2.801-8.4zm-.1 10.299c-.199 1-.4 2.101-.799 3.101-.4 1-1 1.899-1.602 2.8-.6.8-1.398 1.5-2.199 2.2-.9.7-1.801 1.2-2.801 1.6-1 .4-2 .7-3.1.8a16.916 16.916 0 0 1-3.199 0c-1-.199-2.1-.399-3.1-.8-1-.399-1.9-1-2.801-1.6-.801-.601-1.5-1.4-2.199-2.2-.701-.9-1.201-1.8-1.602-2.8-.398-1-.699-2-.799-3.101-.1-1.1-.1-2.199 0-3.199.199-1 .4-2.101.799-3.101.4-1 1-1.899 1.602-2.8.6-.8 1.398-1.5 2.199-2.2.9-.7 1.801-1.2 2.801-1.6 1-.4 2-.7 3.1-.8 1.1-.101 2.199-.101 3.199 0 1 .199 2.1.399 3.1.8 1 .399 1.9 1 2.801 1.6.4.3.801.7 1.199 1 .4.4.701.7 1 1.101.701.899 1.201 1.8 1.602 2.8.398 1 .699 2 .799 3.1.201 1.2.201 2.2 0 3.299zm-4.815-1.33a1.246 1.246 0 0 0-1.276.183c-1.521 1.241-3.705 1.953-5.991 1.953-2.286 0-4.47-.712-5.991-1.953a1.25 1.25 0 0 0-2.035.86c-.02.227-.034.455-.034.687 0 4.444 3.616 8.061 8.061 8.061 4.444 0 8.06-3.616 8.06-8.061 0-.231-.015-.46-.034-.687a1.252 1.252 0 0 0-.76-1.043zm-7.267 7.29a5.57 5.57 0 0 1-5.257-3.745c3.148 1.424 7.365 1.424 10.513 0a5.57 5.57 0 0 1-5.256 3.745z"></path></svg></svg>